<?xml version="1.0" encoding="UTF-8"?>
<!DOCTYPE svg  PUBLIC '-//W3C//DTD SVG 1.1//EN'  'http://www.w3.org/Graphics/SVG/1.1/DTD/svg11.dtd'>
<svg width="800px" height="800px" fill="none" stroke="#000000" viewBox="0 0 320 320" xmlns="http://www.w3.org/2000/svg">
<path d="m144 120.28c-0.179-0.082-0.346-0.124-0.5-0.124-54.587 1.291-98 10.337-98 22.341l1.3694 37.202c-22.98-10.51-38.869-33.069-38.869-59.202 0-36.175 30.445-65.5 68-65.5 37.48 0 67.878 29.208 68 65.283z" clip-rule="evenodd" fill="#08A76E" fill-rule="evenodd"/>
<path d="m265 227.5 4.471-82.472c0.019-0.176 0.029-0.351 0.029-0.528 0-3.14-7.759-7.774-15.696-10.824 32.91 4.577 58.196 31.856 58.196 64.824 0 36.175-30.445 65.5-68 65.5-21.112 0-39.976-9.267-52.449-23.808 26.881-2.133 52.643-6.483 73.449-12.692z" clip-rule="evenodd" fill="#08A76E" fill-rule="evenodd"/>
<path d="m269.5 144.5-4.5 83c-62 18.5-168 20.5-216.5-3.5l-3-81.5m224 2c0-5.949-27.851-17.264-32-13m32 13c0 4.5-6.221 8.584-16.88 12m-207.12-14c0-12.979 50.749-22.5 111.5-22.5 6.279 0 12.961 0.096 19 0.331 2.326 4.268 3.903 6.641 6.955 10.669-70-2-128.96 7.521-128.96 20.5m-8.5-9c0 5.522 9.1874 10.781 24.424 15m-24.424-15c0.5127 3.861 2.2955 5.835 8.5 9m0 0c6.0687 2.938 9.3755 4.247 15.924 6m108.58 9.096c30.879-1.176 57.74-4.847 74.12-10.096m-125.62 9.545c-22.688-1.469-42.609-4.538-57.076-8.545m0 0s7.8529-11.45 15.076-11.5c3.9537-0.027 6.1051 3.321 10 4 4.6206 0.806 8.305 1.098 12.5-1 5-2.5 5.362-9.504 13.5-7 6.5 2 0 7 7.5 6 11.645-1.553 14.5-7.5 26-7.5 3.751 0 4.287 4.97 8 5.5 1.724 0.246 6.03-2.709 13-4 7.178-1.33 17-1 17-1m0 0s-32.5-26.5-18-56.5c4.813-9.9574 8.058-19.391 19-21 8.944-1.3154 19.273 0.2759 28 4.3371m-29 73.163c14 14 35.208 16.493 59.849 14.849m-106.85 0.151s4.439-6.28 9-4c2 1 1.5 4 5.5 4.5 4.707 0.588 9-1.5 9-1.5m68.5-23.5c-5-23 8-31.5 1.5-47-3.08-7.3447-9.64-13.005-17.5-16.663m16 63.663c3.043 14 5.088 17.292 14.849 24.349m0.271 0.651-0.271-0.651m-30.849-88.012s15.483-6.4959 26-7.3372c12.5-1.0001 20.017 0.3934 18 7.3372-1.5 5.1627-6 3.6628-15 3.6628-11.415 0-29-3.6628-29-3.6628zm-20.5 59.663s-6-10.392-6-21.5c0-4 2.061-17.411 7.5-18 5.917-0.6411 10.868 4.6572 12 10.5 0.673 3.4721-1.5 10-1.5 10m-154.5 87.5c-0.5864 2.194-0.6063 4.108 0 9m19.5-6.5c0.6382 3.363 0.4609 5.225-1 8.5m-12.5 4c-0.5463 3.29-0.4817 4.889 0 7.5m182.5-40c-0.595 3.382-0.628 5.443 0 9.5m7.5-21.404c0.539 3.64 0.482 5.442 0 8.404m-75.5 28c-6.5 22.5-46.5 26.5-57.5 0.5 20.522-16.822 39.5-18 57.5-0.5zm0 0s17.757 10.5 20 9 1.5-19 0-21.5-20 12.5-20 12.5zm-39.5 1.5v2.5m-104-99c5.248 1.995 7.9208 3.559 12 7.5m4.5-28.5c3.9975 5.2122 5.7636 8.2706 8 14m19.5-11c-0.5591 6.2262-0.5947 9.5339 0 15" stroke="#000" stroke-linecap="round" stroke-width="5"/>
</svg>
