<?xml version="1.0" encoding="UTF-8"?>
<!DOCTYPE svg  PUBLIC '-//W3C//DTD SVG 1.1//EN'  'http://www.w3.org/Graphics/SVG/1.1/DTD/svg11.dtd'>
<svg width="800px" height="800px" fill="none" viewBox="0 0 320 320" xmlns="http://www.w3.org/2000/svg">
<path d="m78.025 62.505c-26.829 8.7318-46.962 28.806-47.023 57.013-0.0259 12.047 3.2439 21.312 9.1183 28.204 9.5296-26.329 53.924-54.844 100.27-70.834-0.724-0.9812-1.501-1.9417-2.332-2.8805-10.189-11.515-35.386-19.524-60.032-11.503zm69.764 32.816c-44.929 14.846-82.47 43.272-91.661 63.562 7.0052 2.864 15.24 4.519 24.4 5.145 29.864 2.041 53.194-13.426 63.532-41.509 3.504-9.517 4.852-18.725 3.729-27.198zm31.303 47.572c0.635-6.523 3.225-13.529 10.99-21.375 13.769-13.911 31.094-23.181 48.277-22.148-2.754 3.7124-6.203 7.4744-10.229 11.228-13.798 11.308-21.192 16.428-34.017 24.269-4.824 2.77-9.851 5.455-15.021 8.026zm-7.893 37.982c1.697 0.544 3.296 0.691 4.404 0.458 3.002-0.632 6.986-11.003 5.756-14.004 33.21-15.01 60.456-36.689 75.534-62.087 0.057-0.096 0.097-0.2 0.118-0.307 0.873 0.492 1.742 1.018 2.607 1.58 17.219 11.187 23.365 26.998 22.511 47.511-0.999 24.005-17.007 41.009-36.517 58.513-23.674 21.24-35.231 30.577-66.035 38.509-18.469 4.756-32.515 4.501-45.022-4.001-0.573-0.389-1.135-0.795-1.686-1.217 0.269-0.809 0.037-1.981-0.599-2.398-3.671-2.411-5.608-7.324-7.113-11.811-0.318-0.95-1.747-0.921-2.092 0.02-0.12 0.326-0.246 0.653-0.378 0.981-2.825-7.291-2.711-16.264 2.363-26.584 1.87-3.803 4.19-6.549 6.828-8.611-2.908 3.572-3.471 8.965-1.298 13.413 2.249 4.601 10.356 5.412 14.512 5.517 0.903 0.023 1.44 1.177 0.874 1.88-2.602 3.238-7.282 9.978-5.881 15.108 1.565 5.73 5.204 9.221 11.006 10.502 10.476 2.314 15.007-23.005 15.007-23.005l49.025-18.004s10.446 8.558 17.009 6.001c7.005-2.729 10.715-10.493 8.004-17.504-1.733-4.482-8.571-6.552-12.884-7.429-0.999-0.203-1.271-1.8-0.396-2.322 4.044-2.412 10.431-7.055 10.279-12.254-0.165-5.631-2.658-10.224-8.004-12.003-5.577-1.855-9.82 1.379-14.008 5.501-4.841 4.768-5.502 16.504-5.502 16.504l-60.031 19.005s-6.598-4.744-11.656-4.403c3.537-1.496 7.38-2.417 11.315-3.36 7.472-1.791 15.277-3.661 21.95-9.699zm70.649-30.33c3.507-3.08 6.134-7.546 7.699-11.81 0.346-0.941 1.775-0.97 2.094-0.02 1.504 4.486 3.441 9.398 7.112 11.809 0.876 0.575 0.985 2.583 0.075 3.101-5.689 3.237-6.371 7.668-6.614 13.005-0.047 1.028-1.18 1.229-1.535 0.263-1.661-4.511-4.353-11.45-8.542-14.067-0.738-0.461-0.943-1.707-0.289-2.281z" clip-rule="evenodd" fill="#08A76E" fill-rule="evenodd"/>
<path d="m39.033 151.33c12.007-50.012 157.58-110.53 205.1-78.018m-205.1 78.018 14.781 36.45c0.1392 0.344 0.4566 0.582 0.8251 0.619 37.17 3.705 75.311-1.788 108.96-13.881m-124.56-23.188c2.7924 6.863 8.0069 11.71 15.008 14.844m190.1-92.862c0.238 0.5078 0.449 1.0206 0.635 1.5381m-0.635-1.5381 0.635 1.5381m-190.73 91.324c3.0016-32.348 107.56-100.36 189.43-75.358m-189.43 75.358c30.372 13.595 94.366-5.06 140.07-31.303 12.825-7.842 20.219-12.961 34.017-24.269 7.161-6.678 12.496-13.379 15.343-19.786m0 0c2.496-5.6181 3.078-11.011 1.3-15.966m-81.176 99.668c2.408 5.295 9.005 7.45 12.006 6.819 3.002-0.632 6.986-11.003 5.756-14.004m-17.762 7.185c-3.309-5.329 0.333-13.553 6.503-14.686 5.197-0.955 9.005 2 11.259 7.501m0 0c33.21-15.01 60.456-36.689 75.534-62.087 0.16-0.269 0.182-0.597 0.062-0.886l-12.182-29.51m-75.673 133.99s1.102-7.154 4.502-7.502c3.036-0.31 2.952 5.058 6.003 5.001 3.793-0.07 1.724-8.327 5.503-8.001 2.619 0.225 2.381 4.306 5.003 4.501 3.842 0.285 1.189-7.946 5.002-8.502 2.513-0.367 6.003 2.5 6.003 2.5m45.023-93.521 0.5 5.001m-4.502 5.501-4.002 4.501m-45.523-40.509 7.504-1.0002m5.002-4.501h8.004m-150.58 109.03h5.0025m10.005 0h4.5023m182.09-21.505 1.001 11.002m-5.503-3.937 11.006-5.565m-121.06 37.009s-8.396-6.037-13.507-4.001c-6.313 2.514-8.486 10.399-5.503 16.503 2.249 4.602 10.356 5.413 14.512 5.518 0.903 0.023 1.44 1.176 0.874 1.88-2.603 3.238-7.282 9.978-5.881 15.108 1.565 5.73 5.204 9.221 11.006 10.502 10.476 2.314 15.007-23.005 15.007-23.005l49.025-18.004s10.446 8.558 17.009 6.001c7.005-2.729 10.715-10.493 8.004-17.504-1.733-4.482-8.571-6.552-12.884-7.429-0.999-0.203-1.271-1.8-0.396-2.322 4.044-2.412 10.431-7.055 10.279-12.254-0.165-5.631-2.658-10.224-8.005-12.003-5.576-1.855-9.82 1.378-14.007 5.501-4.841 4.768-5.503 16.504-5.503 16.504l-60.03 19.005zm99.957-59.602c-1.565 4.264-4.193 8.73-7.699 11.81-0.654 0.574-0.449 1.82 0.289 2.281 4.189 2.617 6.881 9.556 8.542 14.067 0.355 0.966 1.488 0.765 1.535-0.263 0.243-5.337 0.925-9.768 6.614-13.005 0.91-0.518 0.801-2.526-0.075-3.101-3.671-2.411-5.608-7.323-7.112-11.809-0.319-0.95-1.748-0.921-2.094 0.02zm-117.2 107.8c-5.69 3.237-6.372 7.669-6.615 13.008-0.046 1.027-1.179 1.228-1.534 0.262-1.661-4.511-4.353-11.452-8.543-14.069-0.738-0.461-0.942-1.706-0.289-2.28 3.507-3.081 6.135-7.547 7.701-11.812 0.345-0.941 1.773-0.97 2.092-0.02 1.505 4.487 3.442 9.4 7.113 11.811 0.876 0.574 0.986 2.582 0.075 3.1z" stroke="#000" stroke-linecap="round" stroke-width="5"/>
</svg>
