<?xml version="1.0" encoding="UTF-8"?>
<!DOCTYPE svg  PUBLIC '-//W3C//DTD SVG 1.1//EN'  'http://www.w3.org/Graphics/SVG/1.1/DTD/svg11.dtd'>
<svg width="800px" height="800px" fill="none" stroke="#000000" viewBox="0 0 320 320" xmlns="http://www.w3.org/2000/svg">
<path d="m39.157 90c-6.0602 12-12.647 41.249-3.9999 65.5 4.3381 12.166 11.156 21.326 18.549 28.694l0.8642-42.694 0.5871-29 37.5-19 29.962 8.9999c3.344-6.7533 7.098-13.402 11.187-19.5-2.07-2.1896-3.781-4.2739-4.61-5.3131-0.312-0.3918-0.275-0.9516 0.08-1.306l15.542-15.542c0.214-0.2143 0.512-0.32 0.811-0.2707 1.118 0.1838 4.006 0.7913 6.395 2.4317 0 0 17.632-4 29.632 0 1.767 0.5887 3.337 1.2322 4.739 2 0 0 11.761-2.5 16.261-1.5 3.701 0.8224 5.03 4.238 5.5 8 0.5 4 0 14.5 0 14.5 0.147 1e-4 0.293 1e-4 0.438 1e-4 1.395 0 2.772 0 4.299 0.0698 1.415 0.0648 2.959 0.1896 4.763 0.4302 4.106 0.5474 6.188 2.9383 7 7 0.428 2.1356-0.402 5.2037-1.807 8.4999-3.53 8.28-10.693 18-10.693 18l50.5 11.5v87.735c15.604-14.707 23.774-28.032 25.5-50.235 2.082-26.775-8.487-51.5-18.5-71-13.819-26.912-36-40.969-55-49.5s-49.5-14.5-77.5-14.5-52.5 11.5-67 20.5-24.94 23.5-31 35.5z" clip-rule="evenodd" fill="#08A76E" fill-rule="evenodd"/>
<path d="m92.657 93.5-37.5 19m37.5-19 29.963 9m-29.963-9v30.323m-37.5-11.323-0.587 29m0.587-29 37.5 11.323m131.5 162.18-170.76-49.786c-0.4339-0.126-0.729-0.528-0.7199-0.98l0.6829-33.734m170.8 84.5 38.095-28.2c0.255-0.189 0.405-0.487 0.405-0.804v-30.996m-38.5 60v-36.5m38.5-118-50.5-11.5m50.5 11.5-38.5 21m38.5-21v29m-50.5-40.5s7.162-9.72 10.692-18m-10.692 18c-6.778 1.745-11.31 2.116-15 0.923m27 31.577v29.5m0-29.5-30-5.786m30 35.286 38.5-21.5m-38.5 21.5v67.5m38.5-89v65.5m-38.5 23.5 38.5-23.5m-38.5 23.5-82.247-23.114m10.114-163.39c-2.389-1.6404-5.277-2.2479-6.394-2.4317-0.299-0.0492-0.597 0.0564-0.812 0.2707l-15.542 15.542c-0.354 0.3544-0.392 0.9142-0.079 1.306 0.829 1.0392 2.54 3.1235 4.609 5.3131m18.218-20c0.794 0.5451 1.533 1.2044 2.133 2 5.106 6.7675-1.5 19.5-3.5 22-2.488 3.1099-6.64 4.1382-10 2-2.291-1.4578-4.755-3.7829-6.851-6m18.218-20s17.633-4 29.633 0c1.766 0.5887 3.337 1.2322 4.739 2m2.261 49.302c1.863 2.282 3.61 4.005 5.5 5.204m2-10.006c-6.373 4.883-11.526 7.201-19.5 8.275m-9.5 0.725c3.62-0.128 6.73-0.352 9.5-0.725m36.237-31.705c1.415 0.0647 2.959 0.1895 4.763 0.4301 4.106 0.5474 6.188 2.9383 7 7 0.427 2.1356-0.402 5.2037-1.808 8.5m-9.955-15.93c-0.256 8.5833 2.006 12.032 9.955 15.93m-9.955-15.93c-1.687-0.0772-3.191-0.0691-4.737-0.07m-31.5 31.775s-1.62 8.542 3 11.225c6.118 3.552 14.5-9.494 14.5-9.494m0 0c0.953 0.604 1.942 1.075 3 1.417m-63.351-37.923c-9.645 14.386-17.429 31.832-22.347 46.5m85.698-8.577s1.5 20.077 0 24.577c-0.473 1.421-1.619 1.461-3 1.214m0 0c-2.378-0.423-5.453-1.693-7 1.786-1.323 2.978-5.464 14.163-11.285 23.399m-64.413-42.399c-3.462 10.327-5.503 19.276-5.771 24.81m5.771-24.81-18.802-5.677m-38.087 17.677-1.2146 60m1.2146-60 40.587 10.171m129 32.329-48.285-12.101m0 0c-2.529 4.013-5.374 7.657-8.444 10.101m-15.984-16.223c0.974-12.552 5.257-26.839 5.713-28.277 0.441-1.388-17-4-19-2-1.167 1.168-7.277 13.412-13.354 23.601m26.641 6.676-26.641-6.676m26.641 6.676c-0.445 5.733-0.2 11.103 1.415 14.723m-28.056-21.399c-4.333 7.264-8.649 13.483-11.146 13.899-3.674 0.612-5.848-1.4-6.981-5.922m-0.988-12.768c-0.021 0.417-0.031 0.813-0.031 1.19 0 4.846 0.301 8.715 1.019 11.578m-0.988-12.768-10.531-2.639m-41.802 49.829 33.828 9.507m7.9736-59.336c-10.372 23.865-11.978 45.063-7.9736 59.336m65.675-30.507c1.082 2.426 2.78 4.066 5.298 4.5 3.239 0.558 6.356-0.679 9.271-3m-14.569-1.5c-9.305 20.227-18.907 33.509-27.852 41.136m-18.331-54.558c-8.1951 19.272-10.358 35.229-8.5369 47.007m69.289-32.085c-7.014 21.054-16.163 35.578-25.518 44.386m-54.726-15.379c5.275 18.798 20.284 25.584 37.823 10.629m-26.868-7.551 26.868 7.551m-26.868-7.551c3.7329 24.143 24.204 30.725 43.771 12.301m-79.753-37.386v4.5m-1.5 30.5v5.5m154.5-37v5m-8.5 5v5.5m8.5 0v5m36 35.5 4.5-2.5m-7.5 12.5 4-2m-82.5-175v8m12-8v8m60.5-1.5c8.461-7.6889 12.891-11.273 19-13.5m-11.5 23.5c9.51-1.0628 14.093-1.3626 20-1m-23 13.5c8.06 0.427 12.165 1.355 19 3.802m-79.261-49.302c3.191 1.7483 5.507 4.1413 7.261 8 2.5 5.5-0.238 11.783 5.5 12.5 3.784 0.4729 6.449 0.4985 9 0.4999m-21.761-21s11.761-2.5 16.261-1.5c3.701 0.8224 5.03 4.238 5.5 8 0.5 4 0 14.5 0 14.5" stroke="#08A76E000000" stroke-linecap="round" stroke-width="5"/>
</svg>
